<?xml version="1.0" encoding="UTF-8"?>
<!DOCTYPE svg PUBLIC "-//W3C//DTD SVG 1.1//EN" "http://www.w3.org/Graphics/SVG/1.1/DTD/svg11.dtd">
<svg xmlns="http://www.w3.org/2000/svg" version="1.1" width="222px" height="195px" style="shape-rendering:geometricPrecision; text-rendering:geometricPrecision; image-rendering:optimizeQuality; fill-rule:evenodd; clip-rule:evenodd" xmlns:xlink="http://www.w3.org/1999/xlink">
<g><path style="opacity:1" fill="#fefefe" d="M -0.5,-0.5 C 73.5,-0.5 147.5,-0.5 221.5,-0.5C 221.5,64.5 221.5,129.5 221.5,194.5C 147.5,194.5 73.5,194.5 -0.5,194.5C -0.5,129.5 -0.5,64.5 -0.5,-0.5 Z"/></g>
<g><path style="opacity:1" fill="#314594" d="M 106.5,7.5 C 106.5,9.5 106.5,11.5 106.5,13.5C 105.167,13.5 103.833,13.5 102.5,13.5C 100.609,12.4639 98.7755,12.4639 97,13.5C 95.9849,17.8953 94.8182,22.2287 93.5,26.5C 91.5,26.5 89.5,26.5 87.5,26.5C 87.5,25.1667 87.5,23.8333 87.5,22.5C 89.3069,16.2715 90.6403,9.93814 91.5,3.5C 96.6221,4.43049 101.622,5.76382 106.5,7.5 Z"/></g>
<g><path style="opacity:1" fill="#2b5aa6" d="M 106.5,7.5 C 113.614,8.78862 120.614,10.4553 127.5,12.5C 127.099,13.991 126.932,15.6577 127,17.5C 125.644,18.3802 124.144,18.7135 122.5,18.5C 115.631,17.2018 108.964,15.5351 102.5,13.5C 103.833,13.5 105.167,13.5 106.5,13.5C 106.5,11.5 106.5,9.5 106.5,7.5 Z"/></g>
<g><path style="opacity:1" fill="#2773ba" d="M 127.5,12.5 C 137.506,14.836 147.506,17.1693 157.5,19.5C 156.82,21.3901 156.653,23.3901 157,25.5C 156.329,26.2524 155.496,26.5858 154.5,26.5C 143.647,24.12 132.98,21.4533 122.5,18.5C 124.144,18.7135 125.644,18.3802 127,17.5C 126.932,15.6577 127.099,13.991 127.5,12.5 Z"/></g>
<g><path style="opacity:1" fill="#268fd2" d="M 157.5,19.5 C 167.795,22.3238 178.129,24.9905 188.5,27.5C 188.593,29.4046 188.926,31.2379 189.5,33C 188.956,33.7172 188.289,34.2172 187.5,34.5C 176.268,32.3248 165.268,29.6581 154.5,26.5C 155.496,26.5858 156.329,26.2524 157,25.5C 156.653,23.3901 156.82,21.3901 157.5,19.5 Z"/></g>
<g><path style="opacity:1" fill="#a8aed0" d="M 87.5,22.5 C 87.5,23.8333 87.5,25.1667 87.5,26.5C 89.5,26.5 91.5,26.5 93.5,26.5C 91.3926,27.4682 89.0593,27.8016 86.5,27.5C 86.2155,25.5853 86.5489,23.9187 87.5,22.5 Z"/></g>
<g><path style="opacity:1" fill="#2b3d8e" d="M 29.5,30.5 C 28.1667,32.8333 28.1667,35.1667 29.5,37.5C 27.1667,37.5 24.8333,37.5 22.5,37.5C 22.1683,72.6706 22.5016,107.671 23.5,142.5C 25.5,142.5 27.5,142.5 29.5,142.5C 29.1667,155.833 28.8333,169.167 28.5,182.5C 24.1667,182.5 19.8333,182.5 15.5,182.5C 15.5,131.833 15.5,81.1667 15.5,30.5C 20.1667,30.5 24.8333,30.5 29.5,30.5 Z"/></g>
<g><path style="opacity:1" fill="#2254a2" d="M 29.5,30.5 C 38.5,30.5 47.5,30.5 56.5,30.5C 56.5,32.8333 56.5,35.1667 56.5,37.5C 53.5,37.5 50.5,37.5 47.5,37.5C 41.5,37.5 35.5,37.5 29.5,37.5C 28.1667,35.1667 28.1667,32.8333 29.5,30.5 Z"/></g>
<g><path style="opacity:1" fill="#196cb6" d="M 56.5,30.5 C 65.5,30.5 74.5,30.5 83.5,30.5C 82.1667,32.8333 82.1667,35.1667 83.5,37.5C 74.5,37.5 65.5,37.5 56.5,37.5C 56.5,35.1667 56.5,32.8333 56.5,30.5 Z"/></g>
<g><path style="opacity:1" fill="#0f86cc" d="M 83.5,30.5 C 92.5,30.5 101.5,30.5 110.5,30.5C 110.5,32.8333 110.5,35.1667 110.5,37.5C 101.5,37.5 92.5,37.5 83.5,37.5C 82.1667,35.1667 82.1667,32.8333 83.5,30.5 Z"/></g>
<g><path style="opacity:1" fill="#04a2e5" d="M 110.5,30.5 C 119.5,30.5 128.5,30.5 137.5,30.5C 137.5,81.1667 137.5,131.833 137.5,182.5C 133.167,182.5 128.833,182.5 124.5,182.5C 124.719,169.328 124.385,155.995 123.5,142.5C 127.5,142.5 131.5,142.5 135.5,142.5C 136.498,107.671 136.832,72.6706 136.5,37.5C 127.833,37.5 119.167,37.5 110.5,37.5C 110.5,35.1667 110.5,32.8333 110.5,30.5 Z"/></g>
<g><path style="opacity:1" fill="#01abec" d="M 137.5,30.5 C 139.5,30.5 141.5,30.5 143.5,30.5C 143.5,81.1667 143.5,131.833 143.5,182.5C 141.5,182.5 139.5,182.5 137.5,182.5C 137.5,131.833 137.5,81.1667 137.5,30.5 Z"/></g>
<g><path style="opacity:1" fill="#c7cde2" d="M 29.5,37.5 C 35.5,37.5 41.5,37.5 47.5,37.5C 47.5,37.8333 47.5,38.1667 47.5,38.5C 39.5,38.5 31.5,38.5 23.5,38.5C 23.5,73.1667 23.5,107.833 23.5,142.5C 22.5016,107.671 22.1683,72.6706 22.5,37.5C 24.8333,37.5 27.1667,37.5 29.5,37.5 Z"/></g>
<g><path style="opacity:1" fill="#fefefe" d="M 47.5,38.5 C 76.8333,38.5 106.167,38.5 135.5,38.5C 135.5,73.1667 135.5,107.833 135.5,142.5C 131.5,142.5 127.5,142.5 123.5,142.5C 119.167,142.5 114.833,142.5 110.5,142.5C 104.833,142.5 99.1667,142.5 93.5,142.5C 88.5,142.5 83.5,142.5 78.5,142.5C 73.1667,142.5 67.8333,142.5 62.5,142.5C 57.1667,142.5 51.8333,142.5 46.5,142.5C 40.8333,142.5 35.1667,142.5 29.5,142.5C 27.5,142.5 25.5,142.5 23.5,142.5C 23.5,107.833 23.5,73.1667 23.5,38.5C 31.5,38.5 39.5,38.5 47.5,38.5 Z"/></g>
<g><path style="opacity:1" fill="#bfe4f6" d="M 47.5,38.5 C 47.5,38.1667 47.5,37.8333 47.5,37.5C 50.5,37.5 53.5,37.5 56.5,37.5C 65.5,37.5 74.5,37.5 83.5,37.5C 92.5,37.5 101.5,37.5 110.5,37.5C 119.167,37.5 127.833,37.5 136.5,37.5C 136.832,72.6706 136.498,107.671 135.5,142.5C 135.5,107.833 135.5,73.1667 135.5,38.5C 106.167,38.5 76.8333,38.5 47.5,38.5 Z"/></g>
<g><path style="opacity:1" fill="#1f93d6" d="M 39.5,47.5 C 49.3487,46.5249 52.8487,50.8583 50,60.5C 48.4293,62.9229 46.2626,64.2562 43.5,64.5C 43.5,58.8333 43.5,53.1667 43.5,47.5C 42.1667,47.5 40.8333,47.5 39.5,47.5 Z"/></g>
<g><path style="opacity:1" fill="#3d57a1" d="M 37.5,48.5 C 38.8048,50.3972 39.4714,52.7305 39.5,55.5C 39.4714,58.2695 38.8048,60.6028 37.5,62.5C 32.274,57.7532 32.274,53.0865 37.5,48.5 Z"/></g>
<g><path style="opacity:1" fill="#1f6eb7" d="M 37.5,48.5 C 37.8417,47.6618 38.5084,47.3284 39.5,47.5C 40.8333,47.5 42.1667,47.5 43.5,47.5C 43.5,53.1667 43.5,58.8333 43.5,64.5C 41.1016,64.7406 39.1016,64.0739 37.5,62.5C 38.8048,60.6028 39.4714,58.2695 39.5,55.5C 39.4714,52.7305 38.8048,50.3972 37.5,48.5 Z"/></g>
<g><path style="opacity:1" fill="#f3f8fc" d="M 91.5,78.5 C 91.5654,78.9382 91.3988,79.2716 91,79.5C 89.4412,77.7834 88.6079,75.7834 88.5,73.5C 90.2245,69.8583 92.0578,66.1916 94,62.5C 96.1667,67.5 98.3333,72.5 100.5,77.5C 100.167,78.5 99.5,79.1667 98.5,79.5C 97.1667,78.1667 95.8333,76.8333 94.5,75.5C 93.1451,76.1882 92.1451,77.1882 91.5,78.5 Z"/></g>
<g><path style="opacity:1" fill="#23a6e5" d="M 188.5,27.5 C 197.452,29.6542 206.452,31.6542 215.5,33.5C 209.297,59.3094 202.964,84.9761 196.5,110.5C 196.666,103.825 196.5,97.1583 196,90.5C 195.722,91.4158 195.222,92.0825 194.5,92.5C 198.258,75.6324 202.258,58.7991 206.5,42C 206.245,40.6739 205.578,39.6739 204.5,39C 198.657,37.6727 192.99,36.1727 187.5,34.5C 188.289,34.2172 188.956,33.7172 189.5,33C 188.926,31.2379 188.593,29.4046 188.5,27.5 Z"/></g>
<g><path style="opacity:1" fill="#138cd2" d="M 107.5,88.5 C 106.95,104.991 106.95,121.325 107.5,137.5C 102.5,137.5 97.5,137.5 92.5,137.5C 92.8304,117.66 92.4971,97.9929 91.5,78.5C 92.1451,77.1882 93.1451,76.1882 94.5,75.5C 95.8333,76.8333 97.1667,78.1667 98.5,79.5C 99.5,79.1667 100.167,78.5 100.5,77.5C 98.3333,72.5 96.1667,67.5 94,62.5C 92.0578,66.1916 90.2245,69.8583 88.5,73.5C 87.8333,73.1667 87.1667,72.8333 86.5,72.5C 88.2103,67.4086 90.2103,62.4086 92.5,57.5C 93.0016,56.479 93.6683,56.3123 94.5,57C 99.3234,67.3051 103.657,77.8051 107.5,88.5 Z"/></g>
<g><path style="opacity:1" fill="#177bc3" d="M 86.5,72.5 C 87.1667,72.8333 87.8333,73.1667 88.5,73.5C 88.6079,75.7834 89.4412,77.7834 91,79.5C 91.3988,79.2716 91.5654,78.9382 91.5,78.5C 92.4971,97.9929 92.8304,117.66 92.5,137.5C 87.8333,137.5 83.1667,137.5 78.5,137.5C 77.1667,124.5 77.1667,111.5 78.5,98.5C 77.5,98.5 76.5,98.5 75.5,98.5C 78.7768,89.6701 82.4434,81.0034 86.5,72.5 Z"/></g>
<g><path style="opacity:1" fill="#f5f7fb" d="M 65.5,102.5 C 64.1733,101.2 62.84,99.8665 61.5,98.5C 60.1451,99.1882 59.1451,100.188 58.5,101.5C 57.8826,101.611 57.3826,101.944 57,102.5C 53.8777,99.6443 53.7111,96.6443 56.5,93.5C 57.8923,91.7274 59.059,89.7274 60,87.5C 62.3333,90.8333 64.6667,94.1667 67,97.5C 67.8769,99.6742 67.3769,101.341 65.5,102.5 Z"/></g>
<g><path style="opacity:1" fill="#189fe0" d="M 107.5,88.5 C 114.567,104.63 121.067,120.963 127,137.5C 108.91,138.492 90.7433,138.826 72.5,138.5C 74.2646,137.539 76.2646,137.205 78.5,137.5C 83.1667,137.5 87.8333,137.5 92.5,137.5C 97.5,137.5 102.5,137.5 107.5,137.5C 106.95,121.325 106.95,104.991 107.5,88.5 Z"/></g>
<g><path style="opacity:1" fill="#2455a3" d="M 55.5,89.5 C 56.4345,90.5676 56.7678,91.901 56.5,93.5C 53.7111,96.6443 53.8777,99.6443 57,102.5C 57.3826,101.944 57.8826,101.611 58.5,101.5C 59.3764,101.369 60.0431,101.702 60.5,102.5C 59.2087,114.188 59.2087,125.854 60.5,137.5C 56.5,137.5 52.5,137.5 48.5,137.5C 48.8279,126.321 48.4946,115.321 47.5,104.5C 49.9121,99.3413 52.5788,94.3413 55.5,89.5 Z"/></g>
<g><path style="opacity:1" fill="#269cdd" d="M 196.5,110.5 C 192.591,129.801 187.924,148.801 182.5,167.5C 182.5,158.833 182.5,150.167 182.5,141.5C 181.209,141.737 180.209,141.404 179.5,140.5C 180.5,140.5 181.5,140.5 182.5,140.5C 186.372,124.473 190.372,108.473 194.5,92.5C 195.222,92.0825 195.722,91.4158 196,90.5C 196.5,97.1583 196.666,103.825 196.5,110.5 Z"/></g>
<g><path style="opacity:1" fill="#226db7" d="M 75.5,98.5 C 76.5,98.5 77.5,98.5 78.5,98.5C 77.1667,111.5 77.1667,124.5 78.5,137.5C 76.2646,137.205 74.2646,137.539 72.5,138.5C 58.6565,138.829 44.9898,138.496 31.5,137.5C 37.1667,137.5 42.8333,137.5 48.5,137.5C 52.5,137.5 56.5,137.5 60.5,137.5C 62.5,137.5 64.5,137.5 66.5,137.5C 66.8113,125.753 66.478,114.086 65.5,102.5C 67.3769,101.341 67.8769,99.6742 67,97.5C 64.6667,94.1667 62.3333,90.8333 60,87.5C 59.059,89.7274 57.8923,91.7274 56.5,93.5C 56.7678,91.901 56.4345,90.5676 55.5,89.5C 56.3403,87.1475 57.6736,85.1475 59.5,83.5C 64.4928,89.3309 69.3261,95.3309 74,101.5C 74.5133,100.473 75.0133,99.4734 75.5,98.5 Z"/></g>
<g><path style="opacity:1" fill="#1f60ac" d="M 65.5,102.5 C 66.478,114.086 66.8113,125.753 66.5,137.5C 64.5,137.5 62.5,137.5 60.5,137.5C 59.2087,125.854 59.2087,114.188 60.5,102.5C 60.0431,101.702 59.3764,101.369 58.5,101.5C 59.1451,100.188 60.1451,99.1882 61.5,98.5C 62.84,99.8665 64.1733,101.2 65.5,102.5 Z"/></g>
<g><path style="opacity:1" fill="#2b4695" d="M 47.5,104.5 C 48.4946,115.321 48.8279,126.321 48.5,137.5C 42.8333,137.5 37.1667,137.5 31.5,137.5C 36.029,126.109 41.3624,115.109 47.5,104.5 Z"/></g>
<g><path style="opacity:1" fill="#1b80c6" d="M 176.5,140.5 C 175.402,153.382 175.402,166.216 176.5,179C 175.552,179.483 174.552,179.649 173.5,179.5C 164.692,178.138 156.026,176.138 147.5,173.5C 146.167,167.167 146.167,160.833 147.5,154.5C 151.947,155.241 156.281,156.408 160.5,158C 162.902,158.814 165.235,158.647 167.5,157.5C 160.722,155.311 153.888,153.311 147,151.5C 146.5,145.175 146.334,138.842 146.5,132.5C 156.684,134.546 166.684,137.212 176.5,140.5 Z"/></g>
<g><path style="opacity:1" fill="#158dd2" d="M 176.5,140.5 C 177.5,140.5 178.5,140.5 179.5,140.5C 180.209,141.404 181.209,141.737 182.5,141.5C 182.5,150.167 182.5,158.833 182.5,167.5C 181.5,172.167 180.5,176.833 179.5,181.5C 177.102,181.741 175.102,181.074 173.5,179.5C 174.552,179.649 175.552,179.483 176.5,179C 175.402,166.216 175.402,153.382 176.5,140.5 Z"/></g>
<g><path style="opacity:1" fill="#264b9a" d="M 29.5,142.5 C 35.1667,142.5 40.8333,142.5 46.5,142.5C 46.5,148.833 46.5,155.167 46.5,161.5C 43.9179,161.025 41.9179,161.692 40.5,163.5C 42.2646,164.461 44.2646,164.795 46.5,164.5C 46.5,170.5 46.5,176.5 46.5,182.5C 40.5,182.5 34.5,182.5 28.5,182.5C 28.8333,169.167 29.1667,155.833 29.5,142.5 Z"/></g>
<g><path style="opacity:1" fill="#1e5daa" d="M 46.5,142.5 C 51.8333,142.5 57.1667,142.5 62.5,142.5C 62.5,148.833 62.5,155.167 62.5,161.5C 57.1667,161.5 51.8333,161.5 46.5,161.5C 46.5,155.167 46.5,148.833 46.5,142.5 Z"/></g>
<g><path style="opacity:1" fill="#196cb6" d="M 62.5,142.5 C 67.8333,142.5 73.1667,142.5 78.5,142.5C 77.5125,149.007 77.5125,155.341 78.5,161.5C 73.1667,161.5 67.8333,161.5 62.5,161.5C 62.5,155.167 62.5,148.833 62.5,142.5 Z"/></g>
<g><path style="opacity:1" fill="#137ac3" d="M 78.5,142.5 C 83.5,142.5 88.5,142.5 93.5,142.5C 92.5125,149.007 92.5125,155.341 93.5,161.5C 88.5,161.5 83.5,161.5 78.5,161.5C 77.5125,155.341 77.5125,149.007 78.5,142.5 Z"/></g>
<g><path style="opacity:1" fill="#0e89cf" d="M 93.5,142.5 C 99.1667,142.5 104.833,142.5 110.5,142.5C 110.5,148.833 110.5,155.167 110.5,161.5C 104.833,161.5 99.1667,161.5 93.5,161.5C 92.5125,155.341 92.5125,149.007 93.5,142.5 Z"/></g>
<g><path style="opacity:1" fill="#0996da" d="M 110.5,142.5 C 114.833,142.5 119.167,142.5 123.5,142.5C 124.385,155.995 124.719,169.328 124.5,182.5C 119.833,182.5 115.167,182.5 110.5,182.5C 110.5,176.5 110.5,170.5 110.5,164.5C 113.5,164.5 116.5,164.5 119.5,164.5C 119.737,163.209 119.404,162.209 118.5,161.5C 115.833,161.5 113.167,161.5 110.5,161.5C 110.5,155.167 110.5,148.833 110.5,142.5 Z"/></g>
<g><path style="opacity:1" fill="#fefffe" d="M 46.5,161.5 C 51.8333,161.5 57.1667,161.5 62.5,161.5C 67.8333,161.5 73.1667,161.5 78.5,161.5C 83.5,161.5 88.5,161.5 93.5,161.5C 99.1667,161.5 104.833,161.5 110.5,161.5C 113.167,161.5 115.833,161.5 118.5,161.5C 92.8548,163.491 66.8548,164.158 40.5,163.5C 41.9179,161.692 43.9179,161.025 46.5,161.5 Z"/></g>
<g><path style="opacity:1" fill="#c2ddf0" d="M 118.5,161.5 C 119.404,162.209 119.737,163.209 119.5,164.5C 116.5,164.5 113.5,164.5 110.5,164.5C 104.833,164.5 99.1667,164.5 93.5,164.5C 88.5,164.5 83.5,164.5 78.5,164.5C 73.1667,164.5 67.8333,164.5 62.5,164.5C 57.1667,164.5 51.8333,164.5 46.5,164.5C 44.2646,164.795 42.2646,164.461 40.5,163.5C 66.8548,164.158 92.8548,163.491 118.5,161.5 Z"/></g>
<g><path style="opacity:1" fill="#1e5daa" d="M 46.5,164.5 C 51.8333,164.5 57.1667,164.5 62.5,164.5C 62.5,170.5 62.5,176.5 62.5,182.5C 57.1667,182.5 51.8333,182.5 46.5,182.5C 46.5,176.5 46.5,170.5 46.5,164.5 Z"/></g>
<g><path style="opacity:1" fill="#196cb6" d="M 62.5,164.5 C 67.8333,164.5 73.1667,164.5 78.5,164.5C 78.297,170.529 78.297,176.529 78.5,182.5C 73.1667,182.5 67.8333,182.5 62.5,182.5C 62.5,176.5 62.5,170.5 62.5,164.5 Z"/></g>
<g><path style="opacity:1" fill="#137ac3" d="M 78.5,164.5 C 83.5,164.5 88.5,164.5 93.5,164.5C 93.297,170.529 93.297,176.529 93.5,182.5C 88.5,182.5 83.5,182.5 78.5,182.5C 78.297,176.529 78.297,170.529 78.5,164.5 Z"/></g>
<g><path style="opacity:1" fill="#0e89cf" d="M 93.5,164.5 C 99.1667,164.5 104.833,164.5 110.5,164.5C 110.5,170.5 110.5,176.5 110.5,182.5C 104.833,182.5 99.1667,182.5 93.5,182.5C 93.297,176.529 93.297,170.529 93.5,164.5 Z"/></g>
</svg>
